<?xml version="1.0" encoding="utf-8"?>
<!DOCTYPE svg PUBLIC "-//W3C//DTD SVG 20010904//EN" "http://www.w3.org/TR/2001/REC-SVG-20010904/DTD/svg10.dtd">
<svg version="1.0" xmlns="http://www.w3.org/2000/svg" width="4521px" height="1807px" viewBox="0 0 4521 1807" preserveAspectRatio="xMidYMid meet">
 <g fill="#f4b75a" stroke="#f4b75a" stroke-width="1">
  <path d="M1068 1804.5 c-5.2 -0.7 -16.5 -1.8 -25 -2.4 -71.7 -5.3 -154.3 -22.6 -229.5 -48.1 -190.5 -64.7 -360.3 -195.6 -472.5 -364.2 -81.3 -122 -133.3 -260.3 -151.5 -402.8 -6.1 -48.1 -7.9 -82.8 -7.2 -138 0.7 -53.5 3.7 -88.3 12.2 -138.4 20 -117.9 54.5 -209.6 113.6 -301.4 55.5 -86.2 132.2 -164.2 219.2 -222.6 118.4 -79.5 263.4 -125.5 427 -135.6 17.3 -1 72.6 -1.3 97.2 -0.5 8.2 0.3 15.5 0.1 17.7 -0.5 2 -0.6 8.5 -4 14.5 -7.6 27 -16.5 51.8 -28.3 75.3 -35.9 10.5 -3.4 26 -6.9 26.8 -6 0.2 0.2 -0.8 13.3 -2.2 29.2 -1.5 15.8 -2.7 30.3 -2.9 32.1 -0.2 3.2 0 3.4 6.6 6.2 3.7 1.5 6.7 2.6 6.7 2.3 0 -0.3 0.6 -0.1 1.3 0.5 1.2 1 30.2 13.2 32.2 13.6 0.6 0.1 2 0.8 3.3 1.4 1.2 0.7 2.2 1 2.2 0.6 0 -0.3 0.6 -0.2 1.2 0.4 1.2 0.9 12.8 6 15.3 6.6 0.6 0.2 3.3 1.3 6 2.5 2.8 1.3 5.5 2.4 6 2.5 0.6 0.1 1.9 0.7 3 1.3 1.1 0.6 6.5 2.9 12 5.3 5.5 2.3 13 5.8 16.7 7.7 3.7 1.8 7 3.4 7.3 3.4 0.5 -0.1 19.1 9.1 25.5 12.6 1.9 1 6 3.5 9 5.4 3 1.9 7.1 4.4 9 5.5 1.9 1 3.7 2.1 4 2.4 1.7 1.7 8 6 8.8 6 0.6 0 1.2 0.4 1.4 0.8 0.2 0.4 4.8 4.3 10.3 8.7 13.6 10.7 49.6 46.8 47.5 47.7 -0.5 0.3 -45 50 -138.2 154.7 -7 7.8 -12.8 14.6 -12.8 15 0 0.3 2.5 3.3 5.5 6.5 3 3.3 5.5 6.2 5.5 6.5 0 0.3 1.6 2.3 3.5 4.4 1.9 2.1 3.5 4.1 3.5 4.4 0 0.4 0.7 1.3 1.6 2.2 0.8 0.9 4.4 5.7 8 10.6 3.6 5 7 9.7 7.7 10.5 0.7 0.9 2.6 4.2 4.2 7.3 1.7 3.1 3.4 5.7 3.8 5.7 0.5 0 0.5 0.5 0.2 1 -0.3 0.6 -0.1 1 0.6 1 0.7 0 1 0.3 0.6 0.6 -0.3 0.4 0.2 2.3 1.2 4.3 1.1 2 2 3.9 2 4.3 0.1 0.4 0.9 2.7 1.7 5 1.5 4.1 6.1 22.6 6.9 27.8 0.2 1.4 1.1 5.7 2 9.5 0.8 3.9 1.7 8.1 1.9 9.5 0.3 1.4 1 4.5 1.6 7 0.6 2.5 1.2 5.4 1.5 6.5 0.2 1.1 0.6 3.4 0.9 5 0.4 1.7 0.9 4.1 1.3 5.5 0.3 1.4 0.7 3.2 0.9 4 0.6 3.6 1.5 7.7 2.1 10 0.6 2.6 0.7 3.1 1.8 9 0.4 1.9 1.1 5.3 1.6 7.5 0.5 2.2 1.2 5.4 1.5 7 0.3 1.7 1 4.8 1.5 7 1.1 4.5 1.5 6.5 2.4 11.5 0.4 1.9 1.1 5.3 1.6 7.5 0.5 2.2 1.2 5 1.4 6.3 0.3 1.2 0.7 3.2 0.9 4.5 0.3 1.2 0.8 3.7 1.1 5.5 0.4 1.9 2.4 12.2 4.6 23 2.2 10.9 4.2 21.1 4.4 22.7 0.3 1.7 0.9 5.3 1.5 8 0.6 2.8 1.3 6.8 1.6 9 0.3 2.2 1 6 1.5 8.5 0.6 2.5 1.3 6 1.5 7.8 0.2 1.9 1.6 10.2 3 18.5 1.3 8.4 2.6 16.6 2.8 18.2 1.4 10.9 15 104.2 16.6 114 1.2 6.6 2.3 13.8 2.6 16 0.2 2.2 0.7 4.7 1 5.5 0.3 0.8 0.8 3.3 1 5.5 0.3 2.2 0.7 4.7 1 5.5 0.3 0.8 0.7 2.9 1 4.5 0.2 1.7 1.5 8.4 2.9 15 1.4 6.6 2.8 13.5 3 15.4 0.3 1.8 1 4.1 1.5 5.1 0.5 0.9 0.7 1.9 0.5 2.2 -0.3 0.2 0 2 0.6 3.9 1.4 4.6 1.9 6.9 2.4 10.1 0.5 3.1 2.3 10.6 3.2 12.8 0.9 2.4 1.1 2.9 2.9 11.5 0.3 1.7 0.9 3.5 1.2 4 0.4 0.6 0.8 1.9 0.9 3 0.2 1.1 0.6 2.7 1 3.5 0.3 0.8 0.7 1.8 0.8 2.3 0.2 0.4 0.4 0.9 0.5 1.2 0.1 0.3 0.4 1 0.5 1.5 0.1 0.6 0.4 1.2 0.5 1.5 0.1 0.3 0.3 0.8 0.5 1.3 0.1 0.4 0.6 1.8 1.2 3.2 0.6 1.4 2.3 5.4 3.8 9 3.8 9.1 11.6 22.6 18.7 32.3 6.6 9 33.4 36.1 36.7 37.2 1.2 0.3 2.1 1 2.1 1.5 0 0.4 1.7 2.1 3.8 3.7 2.2 1.5 8.2 6.9 13.6 11.9 l9.6 9.2 -32.4 98.3 c-17.9 54.1 -39.5 119.9 -48.1 146.2 l-15.8 47.9 -4.6 -0.7 c-10.6 -1.5 -55.5 -10.8 -70.4 -14.6 -42.9 -10.7 -81.4 -26.9 -110.7 -46.4 -27.8 -18.6 -42 -40.2 -44.5 -68 -0.4 -4.5 0.2 -14.4 1.5 -27.5 2.8 -26 3.9 -78 2 -89.8 -1.6 -10.1 -5.9 -22.7 -10.1 -29.9 -1.9 -3.2 -6.8 -9.2 -10.9 -13.4 -6.1 -6.1 -9.4 -8.5 -17 -12.3 -5.4 -2.6 -13.2 -5.5 -18 -6.6 -13.8 -3.1 -42.4 -7.9 -58 -9.6 -48.4 -5.2 -90 -19.7 -128.4 -44.7 -14.6 -9.5 -25.4 -18 -53.6 -42.2 -29.9 -25.6 -80.1 -67.6 -127.5 -106.5 -52.5 -43.1 -67.6 -58.9 -78.9 -83 -7.1 -15.1 -11.6 -38.3 -10.1 -51.5 0.4 -3.3 0.7 -26.2 0.6 -51 l-0.1 -45 -3.1 -2.6 c-12.1 -10.5 -24.1 -10.7 -34 -0.8 -7.1 7.1 -7.3 8.3 -7.7 54.9 -0.4 53.2 0.8 86.4 3.8 97.5 1.2 4.4 2.8 9 3.6 10.3 0.8 1.2 1.2 2.2 0.9 2.2 -1 0 5.3 11.5 11.2 20.6 11.7 17.6 30.1 36.9 53.7 55.9 2.1 1.7 4.7 4 5.9 5.1 1.2 1.2 9.6 8.5 18.7 16.3 16 13.7 18.1 15.6 27 23.1 2.2 1.9 5.4 4.6 6.9 6 1.6 1.4 4.6 3.9 6.7 5.7 16.9 14 65.6 56.4 70.5 61.2 2.5 2.5 8.3 7.8 17.9 16.4 16.9 15 32.2 29.4 47.4 44.3 13.4 13.2 14.7 14.8 19.3 24 4.3 8.7 8.3 17.4 8.9 19.7 0.1 0.4 0.2 0.8 0.3 1 0.2 0.1 0.5 1.3 0.7 2.6 0.2 1.4 1.1 5 1.8 8 1.4 5.3 2.9 14.3 4 24.1 0.3 2.5 1.3 13.3 2.1 24 4.2 54.1 12 102.9 24.6 153.5 1.6 6.6 3.2 12.7 3.6 13.5 0.3 0.8 0.8 2.3 1 3.3 0.6 3.3 7.5 27.2 8.1 28.2 0.4 0.6 0.7 1.6 0.8 2.3 0.3 1.6 7.9 24.9 9.5 28.7 0.7 1.7 1.3 3.7 1.5 4.5 0.2 0.9 1.1 3.4 2 5.5 1 2.2 1.9 4.9 2.1 6 0.2 1 1 3 1.8 4.2 0.9 1.3 1.3 2.3 1 2.3 -0.3 0 0 1 0.7 2.3 0.6 1.2 1.3 2.7 1.4 3.2 0.5 2.4 5.5 15 6.5 16.2 0.6 0.7 0.8 1.3 0.4 1.3 -0.4 0 0 1.1 0.9 2.5 0.9 1.4 1.4 2.5 1.1 2.5 -0.3 0 0 1 0.7 2.3 0.6 1.2 1.3 3 1.5 4 0.2 1 0.8 2.8 1.5 4 0.7 1.2 1.3 2.7 1.4 3.2 0.1 0.6 0.8 2.4 1.5 4 0.7 1.7 1.3 3.2 1.4 3.5 0.6 2.6 2.9 8.7 3.5 9.5 0.5 0.6 0.9 1.5 0.9 2 0.2 1.8 2.3 8 3.1 9 0.5 0.6 0.9 1.3 0.9 1.8 0.1 0.4 0.1 0.8 0.2 1 0 0.1 0.2 0.9 0.4 1.7 0.3 1.6 11.2 34.4 12.2 37 0.3 0.8 0.7 2 0.9 2.7 0.3 1.6 2.4 8.4 3.1 10.3 0.8 1.9 0.7 1.8 1.7 6 0.5 1.9 1.1 4 1.4 4.5 0.4 0.6 0.8 2.1 1 3.5 0.2 1.3 0.8 3 1.4 3.7 0.6 0.7 0.8 1.3 0.5 1.3 -0.6 0 1.6 8.6 3 12 0.8 1.9 0.7 1.7 1.7 6.5 0.4 2.2 1.2 4.6 1.8 5.3 0.6 0.6 0.8 1.2 0.5 1.2 -0.2 0 1.5 7.8 3.9 17.3 2.5 9.4 4.6 18.3 4.9 19.7 0.2 1.4 1.6 7.5 3 13.5 1.4 6.1 2.8 12.4 3 14 0.3 1.7 1.8 9.8 3.5 18 1.7 8.3 3.3 16.6 3.6 18.5 0.2 1.9 1.3 8.7 2.4 15 7.6 45.6 12 87.1 12 114.3 l0 17.7 -3.7 -0.1 c-2.1 -0.1 -8.1 -0.7 -13.3 -1.4z m138.9 -1041.7 c7.3 -17.2 16.6 -81.4 18.7 -129.3 l0.6 -15 -10.3 -5.4 c-5.7 -3 -18.9 -10.2 -29.4 -15.9 -19.8 -10.9 -44.5 -23.6 -57.7 -29.6 -9.6 -4.3 -9.5 -4.7 -3.2 14.7 15.9 48.9 73.7 184.7 78.5 184.7 0.5 0 1.8 -1.9 2.8 -4.2z"/>
  <path d="M683 1777.3 c-49.7 -8.4 -88.5 -22.7 -121.8 -44.8 -7.4 -4.9 -8.7 -6.5 -5.2 -6.5 1.1 0 2 -0.7 2 -1.5 0 -1 1 -1.5 2.8 -1.5 l2.7 0.1 -3.5 2.9 c-3.9 3.3 -3.3 4.1 0.7 1 1.4 -1.1 4 -2.1 5.7 -2.1 1.8 -0.1 2.3 -0.3 1.3 -0.6 -1 -0.3 -1.7 -1.2 -1.5 -2.1 0.4 -2.3 7.8 -3 7.8 -0.8 0 0.9 -0.8 1.7 -1.7 1.8 -1 0.1 4.1 0.4 11.2 0.7 l13.1 0.6 21.4 10.6 c22.1 11 48.1 26.1 60 34.9 6.7 5 10.1 8.1 8.4 7.9 -0.5 -0.1 -2 -0.4 -3.4 -0.6z"/>
  <path d="M431.8 1660.2 c-5.9 -2.7 -14.9 -8 -20 -11.7 -16.1 -11.8 -54.8 -41.7 -54.8 -42.4 0 -2 3.1 -3.1 9 -3.2 3.6 -0.1 5.7 -0.3 4.8 -0.6 -3 -0.8 -2.1 -3.3 1.1 -3.3 3.4 0 5 1.6 2.4 2.3 -1 0.3 1.8 0.5 6.2 0.5 4.4 0 7.2 -0.2 6.3 -0.5 -3 -0.8 -2.1 -3.3 1.1 -3.3 3.4 0 5 1.6 2.4 2.3 -1 0.3 1.8 0.5 6.2 0.5 4.4 0 7.2 -0.2 6.3 -0.5 -3 -0.8 -2.1 -3.3 1.1 -3.3 3.4 0 5 1.6 2.4 2.3 -1 0.3 1.8 0.5 6.2 0.5 4.4 0 7.2 -0.2 6.3 -0.5 -3 -0.8 -2.1 -3.3 1.1 -3.3 3.4 0 5 1.6 2.4 2.3 -1 0.3 0.2 0.5 2.7 0.6 6.5 0.2 10.5 1.5 14 4.8 1.6 1.5 16.2 14.1 32.4 27.8 16.2 13.8 29.5 25.5 29.5 26.2 0.1 0.7 -0.9 2.3 -2.1 3.7 l-2.3 2.5 -27 0.6 -27 0.5 -10.7 -4.8z"/>
  <path d="M501.2 1660.4 c0.4 -2.1 2.2 -2.3 2.6 -0.1 0.2 1 -0.3 1.7 -1.3 1.7 -1 0 -1.5 -0.6 -1.3 -1.6z"/>
  <path d="M356 1601.9 c0 -1.3 0.7 -1.9 2.4 -1.9 3.6 0 3.9 1.4 0.5 2.7 -2.6 1 -2.9 0.9 -2.9 -0.8z"/>
  <path d="M338.5 1542.1 c-0.3 -0.5 0.3 -1.2 1.2 -1.4 1 -0.3 -11.4 -0.5 -27.4 -0.6 l-29.3 -0.1 -4.8 -2.9 c-4.8 -3 -11.1 -9.8 -38.5 -41.6 -14.5 -16.9 -16.6 -20.3 -10.9 -18 1.5 0.6 1.5 0.8 -0.3 1.5 -4.6 1.9 1.4 0.8 9.4 -1.7 l8.6 -2.8 36.9 0 37 0 25.8 32 25.8 32 -13.3 0.5 c-7.2 0.3 -12.4 0.7 -11.4 0.8 0.9 0.1 1.7 0.9 1.7 1.7 0 1.1 -1.2 1.5 -4.9 1.5 -2.8 0 -5.2 -0.4 -5.6 -0.9z"/>
  <path d="M231 1476.5 c0 -1.6 6.2 -3.1 8.1 -1.9 0.9 0.5 0.2 1.2 -2.2 2 -4.6 1.7 -5.9 1.7 -5.9 -0.1z"/>
  <path d="M241 1473.6 c0 -1.7 8.8 -3.2 10.2 -1.8 0.7 0.7 -0.8 1.4 -4.2 2.1 -6.3 1.4 -6 1.4 -6 -0.3z"/>
  <path d="M4112 1438.9 c-23.1 -1.3 -46.1 -5.8 -85.2 -16.5 l-6.8 -1.8 0 -48.6 0 -48.5 24.2 0.3 c13.4 0.2 24.3 0.4 24.4 0.5 0.1 0.1 0.7 4.3 1.3 9.2 3.8 31.6 17.1 49.3 41.3 55 8.2 1.9 28.1 1.9 37.3 0 3.9 -0.8 10.7 -3.3 15.2 -5.5 17.9 -8.8 29.8 -25.5 47.3 -66.2 l7.7 -18 -24.6 -57.1 c-13.5 -31.5 -59.3 -137.7 -101.6 -236.2 l-77 -179 -25.3 -0.3 -25.2 -0.2 0 -26.5 0 -26.5 134 0 134 0 0 26.5 0 26.5 -27.8 0.2 -27.8 0.3 59 137.7 c32.5 75.7 59.4 137.9 59.8 138.3 0.5 0.5 110.8 -273.9 110.8 -275.7 0 -0.5 -13.7 -0.8 -30.5 -0.8 l-30.5 0 0 -26.5 0 -26.5 87 0 87 0 0 26.5 0 26.5 -28.4 0 -28.5 0 -14 35.3 c-106 267 -197.2 494 -203.2 505.7 -15.5 30.1 -33.5 49.4 -56.1 60 -20.6 9.6 -47 13.7 -77.8 11.9z"/>
  <path d="M260.5 1416 c-0.3 -0.5 -0.3 -1 0.2 -1 0.4 0 1.8 -0.3 3.1 -0.6 1.6 -0.5 2.2 -0.2 2.2 1 0 1.8 -4.5 2.3 -5.5 0.6z"/>
  <path d="M173.2 1412.2 c-4.9 -6.9 -40.3 -62.4 -40 -62.7 0.2 -0.1 7.4 -0.5 16.1 -0.8 13.1 -0.6 15.7 -0.4 15.7 0.7 0 0.8 -0.8 1.7 -1.7 1.9 -1 0.3 6.3 0.5 16.2 0.5 9.9 0 17.2 -0.2 16.3 -0.5 -1 -0.2 -1.8 -1.1 -1.8 -1.9 0 -1.1 1.7 -1.4 7.8 -1.4 4.4 0 12.7 -0.3 18.5 -0.7 9.4 -0.5 10.7 -0.4 10.7 1 0 0.8 -0.8 1.8 -1.7 2 -1 0.3 0.8 0.5 3.9 0.6 l5.7 0.1 10.4 16.8 c16.5 26.5 24.9 41.1 24.3 42.1 -0.3 0.5 -3.4 1.6 -6.8 2.4 -5.1 1.3 -14.8 1.7 -49 2.1 l-42.7 0.5 -1.9 -2.7z"/>
  <path d="M116.5 1291.1 c-0.3 -0.5 0.3 -1.2 1.2 -1.4 1 -0.3 -2.7 -0.5 -8.2 -0.6 l-10 -0.2 -13.5 -28 c-7.4 -15.4 -13.6 -28.6 -13.8 -29.4 -0.8 -3.7 4.7 -4.4 53.3 -6 60.3 -2 56.3 -2 57.5 0.8 1 2.2 20.8 50.2 21.7 52.4 0.3 0.8 -1.6 2.3 -4.8 3.8 -4.1 1.9 -7.2 2.5 -12.9 2.6 -4.1 0.1 -6.7 0.3 -5.7 0.6 2.9 0.8 2 3.3 -1.2 3.3 -3.4 0 -5 -1.6 -2.4 -2.3 1 -0.3 -2.2 -0.5 -7.2 -0.5 -4.9 0 -8.2 0.2 -7.2 0.5 2.9 0.8 2 3.3 -1.2 3.3 -3.4 0 -5 -1.6 -2.4 -2.3 1 -0.3 -2.7 -0.5 -8.2 -0.5 -5.5 0 -9.2 0.2 -8.2 0.5 3.2 0.8 1.9 3.3 -1.7 3.3 -3.8 0 -5.7 -1.6 -2.9 -2.3 1 -0.3 -2.7 -0.5 -8.2 -0.5 -5.5 0 -9.2 0.2 -8.2 0.5 0.9 0.2 1.7 1.1 1.7 1.9 0 1.6 -6.5 2 -7.5 0.5z"/>
  <path d="M192.6 1287.2 c-0.3 -0.5 1.5 -1.5 3.9 -2.2 2.5 -0.7 4.8 -1.7 5.1 -2.1 0.9 -1.5 3.4 -1 3.4 0.6 0 0.8 -0.9 1.5 -1.9 1.5 -1.1 0 -2.1 0.5 -2.3 1 -0.4 1.4 -7.4 2.5 -8.2 1.2z"/>
  <path d="M2880.5 1251.9 c-70.9 -3.5 -117 -40.7 -129.9 -105 -5.1 -25.1 -5.3 -57.1 -0.5 -80.2 13.9 -66.8 67.1 -105.4 160.3 -116.2 18.7 -2.1 57.2 -3.4 102.5 -3.5 l37.4 0 -0.6 -23.2 c-0.4 -12.8 -1.1 -26.6 -1.8 -30.7 -8.5 -57.7 -42.4 -84.1 -107.6 -84.1 -60.3 0 -89.5 19.5 -106 70.8 l-3.6 11.2 -24.3 0 -24.4 0 0 -50.3 0 -50.3 16.1 -5.2 c37.7 -12.2 78.4 -19.9 121.2 -23.2 18.8 -1.4 68 -1.4 85.7 0 114.4 9 174.8 50.5 193.1 132.4 5.5 24.6 5.3 18.9 5.6 160.9 l0.4 131.7 33.4 0 33.5 0 0 26.5 0 26.5 -110.5 0 -110.5 0 0 -29.5 c0 -16.2 -0.2 -29.5 -0.5 -29.5 -0.2 0 -6.6 6.2 -14.2 13.9 -13.4 13.4 -26.4 23.9 -38.8 31.3 -33.2 19.8 -70.3 28 -116 25.7z m114 -74.9 c28.2 -9.1 46.1 -29.8 53.2 -61.5 1.3 -5.7 1.6 -17.1 2 -61.8 l0.5 -54.8 -40.9 0.3 c-46.5 0.5 -48.7 0.8 -65.8 9.2 -32.8 16.2 -47.5 51.5 -42.5 101.7 3.9 38.4 19.2 60.4 47.2 67.9 10.5 2.9 36.1 2.3 46.3 -1z"/>
  <path d="M1983 1213.5 l0 -26.5 42 0 42 0 0 -275 0 -275 -42 0 -42 0 0 -26.6 0 -26.5 201.3 0.4 c208.9 0.4 208.5 0.4 238.2 4.8 57.5 8.4 100.6 28.2 131.1 60.2 33.7 35.2 47.7 87.4 38.3 142.6 -7.4 43.6 -31.8 76.4 -73.9 99 -22.4 12 -64.5 24.4 -93.7 27.7 -3.5 0.3 -6.3 1 -6.3 1.3 0 0.4 4.1 1.5 9 2.4 41.5 8 72.4 30.7 95.9 70.6 3.2 5.3 27.5 51.1 54.1 101.9 l48.4 92.2 33.8 0 33.8 0 0 26.5 0 26.5 -107.6 -0.2 -107.6 -0.3 -44.4 -84 c-24.5 -46.2 -51 -96.4 -58.9 -111.6 -33.6 -64.5 -47.3 -81.8 -72.4 -90.9 -12.9 -4.7 -22.7 -6 -46.2 -6 l-20.9 0 0 120 0 120 42 0 42 0 0 26.5 0 26.5 -168 0 -168 0 0 -26.5z m337.7 -321.1 c46.5 -6.9 78.6 -32.3 92.5 -73.4 5.9 -17.6 7.3 -28 7.2 -54.5 0 -21.9 -0.2 -25.1 -2.6 -36 -10.4 -49 -39 -77.6 -88.3 -88.6 -9.3 -2 -13.2 -2.2 -52.2 -2.6 l-42.3 -0.5 0 128.6 0 128.6 37.6 0 c28.8 0 40.1 -0.4 48.1 -1.6z"/>
  <path d="M3323 1213.5 l0 -26.5 33.5 0 33.5 0 0 -289 0 -289 -33.5 0 -33.5 0 0 -26.5 0 -26.5 110.5 0 110.5 0 0 315.5 0 315.5 33.5 0 33.5 0 0 26.5 0 26.5 -144 0 -144 0 0 -26.5z"/>
  <path d="M3665 1213.5 l0 -26.5 33.5 0 33.5 0 0 -289 0 -289 -33.5 0 -33.5 0 0 -26.5 0 -26.5 110.5 0 110.5 0 0 315.5 0 315.5 33.5 0 33.5 0 0 26.5 0 26.5 -144 0 -144 0 0 -26.5z"/>
  <path d="M70.6 1228.4 c-1 -2.7 4.6 -5.3 8.1 -3.9 1.5 0.5 1.2 0.9 -1.6 2.1 -1.9 0.8 -4 1.9 -4.7 2.5 -0.8 0.7 -1.4 0.4 -1.8 -0.7z"/>
  <path d="M155 1222.5 c0 -0.9 0.9 -1.5 2.4 -1.5 3.3 0 4.2 1.6 1.3 2.4 -3.3 0.9 -3.7 0.8 -3.7 -0.9z"/>
  <path d="M55.5 1165 c-0.3 -0.5 -0.3 -1 0.2 -1 0.4 0 1.8 -0.3 3.1 -0.6 1.6 -0.5 2.2 -0.2 2.2 1 0 1.8 -4.5 2.3 -5.5 0.6z"/>
  <path d="M66.5 1164 c-0.3 -0.5 -0.3 -1 0.2 -1 0.4 0 1.8 -0.3 3.1 -0.6 1.6 -0.5 2.2 -0.2 2.2 1 0 1.8 -4.5 2.3 -5.5 0.6z"/>
  <path d="M79.5 1163 c-0.3 -0.5 -0.3 -1 0.2 -1 0.4 0 1.8 -0.3 3.1 -0.6 1.6 -0.5 2.2 -0.2 2.2 1 0 1.8 -4.5 2.3 -5.5 0.6z"/>
  <path d="M44.5 1157.3 c-6.5 -22.6 -15.7 -54.3 -16.5 -56.5 l-0.9 -2.8 58.4 0 58.3 0 5 20.8 c2.8 11.4 6 25.2 7.2 30.7 1.2 5.5 2.9 10.8 3.8 11.8 1.4 1.6 1 1.7 -6.6 1.7 -6.4 0 -8.2 -0.3 -8.2 -1.4 0 -0.8 0.8 -1.7 1.8 -1.9 0.9 -0.3 -5.9 -0.5 -15.3 -0.5 -9.3 0 -16.2 0.2 -15.2 0.5 0.9 0.2 1.7 1.1 1.7 1.9 0 1 -1.3 1.4 -4.9 1.4 -5 0 -7.7 -1.4 -4.4 -2.3 4.3 -1.1 -24.6 -0.5 -39.2 0.8 -24.8 2.3 -23.1 2.6 -25 -4.2z"/>
  <path d="M122.5 1036 c-0.3 -0.5 0 -1 0.9 -1 0.8 0 2.8 -1.2 4.5 -2.6 l3.1 -2.6 0 2.6 c0 3.6 -6.7 6.5 -8.5 3.6z"/>
  <path d="M12.2 1026.8 c-3.4 -22.8 -7.5 -53.9 -7.1 -54.2 0.7 -0.6 117.1 -3.7 117.7 -3.2 0.8 0.8 6.1 48.9 6.2 55.4 0 3.9 -0.5 5.7 -2 7.2 -2 2 -3.3 2 -57.9 2 l-55.9 0 -1 -7.2z"/>
  <path d="M16.5 911 c-0.3 -0.5 0.3 -1.1 1.2 -1.3 1 -0.3 -2.5 -0.5 -7.7 -0.6 l-9.5 -0.1 0.3 -30.2 c0.2 -16.6 0.5 -30.5 0.8 -30.8 0.3 -0.3 26.3 -0.7 57.7 -0.9 31.5 -0.2 56.1 -0.7 54.7 -1.2 -2.3 -0.7 -2.3 -0.7 0.8 -0.8 l3.2 -0.1 0 30.8 0 30.8 -2.7 1.6 c-3.3 1.8 -11.8 3.2 -13.5 2.2 -0.8 -0.5 -0.6 -1 0.8 -1.5 1 -0.4 -9.1 -0.7 -22.6 -0.7 -13.5 0 -23.7 0.2 -22.7 0.5 0.9 0.2 1.7 1.1 1.7 1.9 0 1.2 -3.2 1.4 -21 1.3 -11.5 0 -21.2 -0.5 -21.5 -0.9z"/>
  <path d="M1 782.4 c0 -0.3 2 -15.4 4.5 -33.6 2.5 -18.2 4.5 -33.2 4.5 -33.4 0 -0.2 2.4 -0.4 5.4 -0.4 5.4 0 8.3 1.4 4.9 2.3 -1 0.3 23.1 0.5 53.6 0.6 l55.3 0.1 -0.6 5.3 c-0.3 2.8 -1.5 15.1 -2.6 27.2 -1.1 12.1 -2.3 23.5 -2.6 25.3 l-0.5 3.2 -41.2 0.1 c-22.7 0.1 -40.4 0.3 -39.4 0.6 0.9 0.2 1.7 1.1 1.7 1.9 0 1.2 -3.5 1.4 -21.5 1.4 -11.8 0 -21.5 -0.3 -21.5 -0.6z"/>
  <path d="M31.5 656.1 c-0.3 -0.5 0.3 -1.2 1.2 -1.4 1 -0.3 -0.8 -0.5 -3.9 -0.6 -3.2 0 -5.8 -0.2 -5.8 -0.3 0 -0.2 3.6 -13.8 7.9 -30.3 l7.8 -30 4.4 -0.6 c2.4 -0.3 3.6 -0.7 2.7 -0.7 -3.2 -0.3 -2.1 -3.2 1.1 -3.2 3.4 0 5 1.6 2.4 2.3 -1 0.3 3.4 0.5 9.7 0.5 6.3 0 10.7 -0.2 9.8 -0.5 -3.3 -0.8 -2 -3.3 1.6 -3.3 3.8 0 5.7 1.6 2.9 2.3 -1 0.3 3.4 0.5 9.7 0.5 6.3 0 10.7 -0.2 9.8 -0.5 -3 -0.8 -2.1 -3.3 1.1 -3.3 3.4 0 5 1.6 2.4 2.3 -1 0.3 3.4 0.5 9.7 0.5 6.3 0 10.7 -0.2 9.8 -0.5 -3 -0.8 -2.1 -3.3 1.1 -3.3 3.4 0 5 1.6 2.4 2.3 -1 0.3 3.4 0.5 9.7 0.5 6.3 0 10.7 -0.2 9.7 -0.5 -1 -0.3 -1.7 -1.2 -1.5 -2.1 0.4 -2.3 7.8 -3 7.8 -0.8 0 0.9 -0.7 1.6 -1.6 1.6 -0.8 0 -1.2 0.5 -0.9 1 0.3 0.6 2.2 1 4.1 1 4.2 0 8.4 3.7 8.4 7.5 0 2.4 -8.1 36.1 -11.6 48.3 -1.4 4.6 -1.9 5.2 -4.2 5.3 -2.3 0 -2.4 0.1 -0.7 0.8 1.9 0.8 1.9 0.8 -0.2 1.9 -2.6 1.4 -6 1.5 -6.8 0.3 -0.3 -0.5 0.3 -1.2 1.2 -1.4 1 -0.3 -5.4 -0.5 -14.2 -0.5 -8.8 0 -15.1 0.3 -14 0.7 1.9 0.8 1.9 0.8 -0.2 1.9 -2.6 1.4 -6 1.5 -6.8 0.3 -0.3 -0.5 0.3 -1.2 1.2 -1.4 1 -0.3 -5.4 -0.5 -14.2 -0.5 -8.8 0 -15.2 0.2 -14.2 0.5 3.2 0.8 1.9 3.3 -1.7 3.3 -3.8 0 -5.7 -1.6 -2.9 -2.3 1 -0.3 -5.4 -0.5 -14.2 -0.5 -8.8 0 -15.2 0.2 -14.2 0.5 0.9 0.2 1.7 1.1 1.7 1.9 0 1.6 -6.5 2 -7.5 0.5z"/>
  <path d="M154.5 527.1 c-0.3 -0.5 0.3 -1.2 1.2 -1.4 1 -0.3 -19.3 -0.5 -45 -0.6 l-46.8 -0.1 15.8 -31.2 15.8 -31.3 12.5 -0.5 c6.9 -0.3 11.7 -0.7 10.8 -0.8 -1 -0.1 -1.8 -0.9 -1.8 -1.7 0 -1.1 1.1 -1.5 3.9 -1.5 4.2 0 6.4 1.5 3.4 2.3 -1 0.3 3.4 0.5 9.7 0.5 6.3 0 10.7 -0.2 9.8 -0.5 -1 -0.2 -1.8 -1.1 -1.8 -1.9 0 -1 1.5 -1.4 5.9 -1.4 5.8 0 9 1.4 5.4 2.3 -1 0.3 4.7 0.5 12.7 0.5 8 0 13.7 -0.2 12.8 -0.5 -1 -0.2 -1.8 -1.3 -1.8 -2.4 0 -1.6 0.7 -1.9 5.5 -1.9 4.1 0 5.5 0.4 5.5 1.4 0 0.8 -0.8 1.7 -1.7 1.9 -1 0.3 0.2 0.5 2.7 0.5 3.3 0 4 -0.2 2.5 -0.8 -1.8 -0.7 -1.9 -0.8 -0.2 -1.5 3.3 -1.4 16.7 2 16.7 4.3 0 1 -0.7 1.2 -2.2 0.8 -5.7 -1.5 -6.8 -1.4 -2.1 0.2 l5.1 1.7 -13 28.8 c-10.9 23.8 -13.5 28.7 -15.2 28.8 -1.7 0.1 -1.8 0.2 -0.3 0.6 0.9 0.2 1.7 1 1.7 1.7 0 1.4 -15 4.2 -17.5 3.2 -0.8 -0.3 -1.5 -0.1 -1.5 0.4 0 1.3 -7.7 1.3 -8.5 0.1z m10.3 -2.8 c-1 -0.2 -2.6 -0.2 -3.5 0 -1 0.3 -0.2 0.5 1.7 0.5 1.9 0 2.7 -0.2 1.8 -0.5z"/>
  <path d="M217.5 398.3 c-25.1 -0.3 -29.9 -0.7 -26 -2.3 1.2 -0.5 -6.3 -0.9 -17.6 -0.9 -16.2 -0.1 -21 -0.5 -27.4 -2.1 -4.3 -1.1 -8 -2.2 -8.2 -2.4 -0.4 -0.4 43 -58 47 -62.3 l2 -2.3 53.5 0 53.4 0 -2.9 3.8 c-2.6 3.3 -10 14 -39.3 57 -4.6 6.7 -8.6 12.1 -8.9 12 -0.3 -0.2 -11.8 -0.4 -25.6 -0.5z"/>
  <path d="M245.6 271.4 c-1.7 -1.7 -2.1 -5 -0.7 -5.8 0.4 -0.3 1.3 0.6 1.9 1.9 0.7 1.4 1.6 2.5 2.2 2.5 0.7 0 0.4 -0.7 -0.4 -1.6 -2.6 -2.6 -1.8 -4.7 3.7 -8.9 2.9 -2.2 20.2 -15.8 38.5 -30.2 l33.3 -26.3 6.2 -0.1 c3.4 -0.1 5.4 -0.3 4.5 -0.6 -1 -0.2 -1.8 -1.1 -1.8 -1.9 0 -1.1 2.6 -1.4 14.8 -1.4 8.1 0 16.4 0.3 18.5 0.6 3.8 0.7 5 2.9 2 3.7 -1 0.3 2.9 0.5 8.7 0.5 5.8 0 9.7 -0.2 8.7 -0.5 -2.6 -0.7 -1 -2.3 2.3 -2.3 3.3 0 4.9 1.6 2.3 2.3 -1 0.3 0.9 0.5 4.2 0.5 3.3 0 5.2 -0.2 4.2 -0.5 -2.5 -0.7 -1 -2.3 2.1 -2.3 3.5 0 7.2 2.6 7.2 5.1 0 2.4 -1.2 2.4 -3.5 -0.1 -1 -1.1 -2.3 -2 -2.9 -2 -0.6 0 0 0.7 1.2 1.6 1.2 0.8 2.2 2.1 2.2 2.9 0 2.6 -43.4 45.6 -52.9 52.5 -5.2 3.8 -9 7.2 -9 8.3 -0.1 0.9 -0.7 1.7 -1.5 1.7 -2.2 0 -2.9 -1.8 -0.9 -2.3 1 -0.3 -7.4 -0.5 -18.7 -0.5 -11.3 0 -19.7 0.2 -18.7 0.5 3.2 0.8 1.9 3.3 -1.7 3.3 -3.8 0 -5.7 -1.6 -2.9 -2.3 1 -0.3 -7.4 -0.5 -18.7 -0.5 -11.3 0 -19.7 0.2 -18.7 0.5 3.2 0.8 1.9 3.3 -1.7 3.3 -3.8 0 -5.7 -1.6 -2.9 -2.3 1 -0.3 0 -0.5 -2.2 -0.5 -2.2 0 -3.2 0.2 -2.2 0.5 0.9 0.2 1.5 0.9 1.2 1.4 -1 1.5 -6.2 1 -7.9 -0.7z"/>
  <path d="M441.2 136.1 l-8.4 -0.6 2.4 -2.1 c4.3 -3.9 92.3 -38 119.3 -46.2 54.3 -16.6 125.7 -28.3 170.5 -28.1 l11.5 0 -26.5 6.4 c-59.5 14.1 -106.8 27.9 -137.5 40 -14.4 5.6 -40.9 18.4 -51.9 24.9 -4.3 2.5 -9.7 5.1 -12 5.6 -4.3 1 -53 1 -67.4 0.1z"/>
 </g>
 <g fill="#a37b34">
  <path d="M538.5 1719.3 c-24.5 -13.7 -78.8 -44.4 -87 -49.1 l-6.9 -4.1 26 -0.3 c27.9 -0.3 28.6 -0.4 30.5 -5.5 0.8 -2.2 1.5 -1.9 19.6 10.4 31.2 21.1 48.3 33.2 58.2 41.2 5.2 4.2 10.3 8.3 11.4 9.2 1.8 1.5 0.9 1.6 -12.7 2.1 -13.8 0.6 -14.8 0.7 -18.1 3.2 -1.8 1.4 -3.5 2.6 -3.7 2.5 -0.2 0 -7.9 -4.3 -17.3 -9.6z"/>
  <path d="M319.7 1573.3 c-19.1 -17.4 -34.6 -31.7 -34.5 -31.8 0.2 -0.1 20.1 -0.5 44.3 -0.9 l44 -0.6 27.4 28.7 27.4 28.8 -4.9 0.6 c-2.7 0.4 -18.2 1.5 -34.4 2.4 -20.9 1.2 -30.1 2.1 -31.7 3.1 -1.2 0.8 -2.4 1.4 -2.5 1.3 -0.2 0 -15.9 -14.3 -35.1 -31.6z"/>
  <path d="M201.8 1448.8 c-13.4 -17 -24.4 -31.3 -24.6 -31.7 -0.1 -0.5 18.9 -1.2 42.4 -1.6 40.7 -0.7 47.2 -1.1 54.5 -4 1.3 -0.5 6.5 6.3 23.3 30.2 l21.6 30.8 -36.8 0.5 -36.7 0.6 -9.7 3.1 -9.7 3.1 -24.3 -31z"/>
  <path d="M131.6 1347.8 c-2.6 -4.7 -28.6 -52 -30.4 -55.4 -1.1 -2.1 -1 -2.1 27.1 -3.3 55.1 -2.5 67.8 -3.5 72.6 -5.8 l4.4 -2.1 2.8 5.7 c23.6 49.2 29.8 62.5 29.5 62.8 -0.3 0.3 -77.5 2.1 -99.8 2.3 -3.3 0 -4 -0.4 -6.2 -4.2z"/>
  <path d="M68.6 1223.2 c-1.4 -3.7 -6.8 -18.4 -12 -32.7 l-9.4 -26 12.6 -1.2 c17.7 -1.7 54.9 -3.3 78.8 -3.3 l20.1 0 3.2 4 c3.3 4.1 6.6 13.5 15.4 43.6 l4.4 15.1 -20.6 0.7 c-78.9 2.5 -83.5 2.7 -86.8 4.6 l-3.2 1.9 -2.5 -6.7z"/>
  <path d="M25 1091.3 c-3.5 -9.2 -7.6 -26.8 -9.4 -39.8 -0.9 -6.6 -1.8 -13 -2 -14.2 l-0.3 -2.3 55.7 0 c54.9 0 55.8 0 58.4 -2.1 1.4 -1.1 2.6 -2.8 2.6 -3.7 0 -1.4 0.2 -1.4 1.4 -0.2 0.8 0.9 3.5 14.4 6.6 33 2.8 17.3 5.4 32.3 5.6 33.3 0.5 1.6 -2.7 1.7 -58 1.7 l-58.5 0 -2.1 -5.7z"/>
  <path d="M3.6 965.9 c-0.6 -5.1 -3.6 -51.1 -3.6 -54.3 0 -1.3 1.5 -1.6 9.5 -1.6 5.2 0 9.5 -0.3 9.5 -0.7 0 -0.5 19.1 -0.6 42.5 -0.5 32.6 0.3 42.5 0.1 42.5 -0.8 0 -0.8 1 -1.1 2.5 -0.8 1.5 0.3 3.7 -0.3 5.7 -1.6 l3.3 -2.1 0 -28.8 0 -28.7 -57.2 0 -57.3 0 0 -33 0 -33 60.5 0 c57 0 60.5 0.1 60.5 1.8 0 0.9 -0.5 4.6 -1.1 8.2 -1 6.2 0.1 119.6 1.6 162.1 l0.6 15.5 -44.3 1.2 c-24.4 0.7 -51.1 1.5 -59.5 1.9 l-15.1 0.6 -0.6 -5.4z"/>
  <path d="M10 717 c0 -0.3 2.8 -14.3 6.1 -31.1 l6.1 -30.6 10.2 -0.7 c5.5 -0.3 23 -0.9 38.9 -1.2 15.8 -0.4 28.7 -1 28.7 -1.3 0 -0.3 7.5 -0.4 16.6 -0.3 11.4 0.3 16.9 0 17.4 -0.7 0.4 -0.7 1.9 -0.9 3.8 -0.5 3.8 0.8 3.9 1.3 1.7 15.9 -1.7 11.4 -9.5 48.7 -10.4 49.7 -0.7 0.8 -119.1 1.6 -119.1 0.8z"/>
  <path d="M155.6 593.2 c-0.4 -1.2 -1.9 -3 -3.4 -4 -3.1 -2 -5.6 -2 -68.6 0.8 -24.2 1.1 -44.1 1.8 -44.2 1.7 -0.1 -0.1 5.3 -14.9 11.9 -32.9 l12.1 -32.7 50 -0.4 c42.3 -0.3 51.5 -0.6 59 -2.1 4.8 -0.9 9 -1.5 9.3 -1.2 1 0.9 -17 55.3 -21.1 64.1 -3.7 7.7 -4.4 8.7 -5 6.7z"/>
  <path d="M198.5 459.9 c-6.7 -1.8 -8.5 -1.8 -48.6 -0.3 -22.9 0.8 -44.4 1.4 -47.6 1.2 l-6 -0.3 19.9 -33.5 c10.9 -18.4 20.2 -33.8 20.6 -34.2 0.4 -0.4 3.9 0.1 7.7 1.3 6.8 1.9 8.6 2 53.8 1.3 38.9 -0.6 46.7 -0.5 46.7 0.7 0 0.7 -6.8 13.7 -15.2 28.9 -8.3 15.1 -16.3 29.6 -17.7 32.2 -2.9 5.4 -3.1 5.5 -13.6 2.7z"/>
  <path d="M202.7 310.3 c9.9 -10.4 23.5 -24.7 30.4 -31.9 11.9 -12.6 12.4 -13.1 13.6 -10.9 0.7 1.2 2 2.4 3 2.7 1 0.2 22.4 -0.1 47.6 -0.6 35.1 -0.9 45.7 -0.8 45.7 0.1 0 3 -2.4 6.7 -9.2 14 -4 4.3 -15.1 16.3 -24.7 26.6 l-17.3 18.7 -53.5 0 -53.5 0 17.9 -18.7z"/>
  <path d="M404.2 205.8 c-2.1 -2.1 -3.3 -2.3 -15.5 -2.6 -7.2 -0.1 -24.1 -0.6 -37.5 -1 l-24.2 -0.7 13.7 -10.1 c24.5 -17.9 32.1 -22.6 67.5 -41 l23.7 -12.4 35.8 0.2 35.8 0.3 -31.5 23 c-48.7 35.6 -63.8 46.5 -64.7 46.5 -0.5 0 -1.9 -1 -3.1 -2.2z"/>
 </g>
</svg>