<?xml version="1.0" encoding="utf-8"?>
<!DOCTYPE svg PUBLIC "-//W3C//DTD SVG 20010904//EN" "http://www.w3.org/TR/2001/REC-SVG-20010904/DTD/svg10.dtd">
<svg version="1.0" xmlns="http://www.w3.org/2000/svg" width="4627px" height="1807px" viewBox="0 0 4627 1807" preserveAspectRatio="xMidYMid meet">
 <g fill="#f4b759">
  <path d="M418.6 1806.3 c-1.7 -1.7 0.1 -42.5 3 -67.8 2.1 -18.5 7.9 -58.5 11.9 -81 0.4 -2.3 6.3 -33 6.9 -36 4.3 -20.8 14.7 -62.6 20.6 -83.5 1.2 -4.1 2.6 -8.8 3 -10.5 2.1 -7.5 3.2 -11.3 4.5 -15 0.7 -2.2 4.8 -14.6 9 -27.5 4.2 -12.9 8.5 -25.9 9.6 -28.7 1 -2.9 2.8 -7.9 4 -11 1.1 -3.2 2.8 -7.6 3.6 -9.8 0.8 -2.2 2.2 -5.8 3 -8 1.8 -4.7 1.8 -4.6 7.8 -20 2.6 -6.6 5.1 -12.9 5.5 -14 0.4 -1.1 1.5 -3.8 2.3 -6 5.6 -14.5 14.7 -40.1 14.7 -41.2 0 -0.5 1.6 -5.8 3.5 -11.8 6 -18.5 13.1 -45.5 18.5 -70.5 9.6 -44.5 14.7 -80.2 18.5 -129 2.8 -35.5 5.7 -50.5 13.4 -67.8 2.6 -6 6.4 -13.3 8.4 -16.3 4.3 -6.6 27.7 -29.5 53.7 -52.9 10.1 -9.1 11.7 -10.5 16.6 -15 10.5 -9.5 40.6 -36 64.4 -56.4 14.6 -12.6 28.1 -24.2 30.1 -26 1.9 -1.7 6 -5.1 8.9 -7.6 6.3 -5.3 36 -30.9 37.6 -32.5 0.6 -0.5 3.5 -3 6.5 -5.5 38.6 -32.2 59.9 -60 68.1 -88.6 2.2 -7.7 2.2 -9.2 2.6 -71.7 0.4 -70.6 0.4 -70.5 -5.9 -78.1 -3.5 -4.2 -11.7 -8.6 -16.2 -8.6 -3.6 0 -8.7 2.2 -16.1 6.8 l-5.8 3.7 0.5 56.5 c0.5 62.3 0.3 65.3 -5.4 81.6 -5.8 16.8 -16 32.3 -31.7 48.6 -9.6 9.9 -12.7 12.6 -71.2 60.9 -47.5 39.1 -82.5 68.4 -111 92.9 -26.1 22.4 -32 27.1 -45.5 36.2 -41.2 27.7 -83.3 42.6 -137 48.3 -20.8 2.2 -56.5 9 -65.2 12.5 -13.8 5.5 -23.5 13 -31.4 24.3 -9.6 13.7 -13.8 28.3 -14.6 51.3 -0.6 15.7 1.1 53 3.2 72.3 4.2 37.1 -1.2 56.9 -21.4 78.3 -22.9 24.3 -74.2 49.5 -130.2 63.7 -12.5 3.2 -56.1 12.3 -74.1 15.5 l-3.6 0.7 -17.2 -52.3 c-9.4 -28.8 -31.1 -94.5 -48.1 -146.2 -17 -51.6 -30.9 -94.2 -30.7 -94.6 0.5 -1.4 23.1 -22.1 30.3 -27.9 22.5 -17.9 39.9 -39 50.9 -61.6 3.8 -7.8 9.9 -23.7 12.1 -31.5 3.1 -11.2 9.9 -38.2 11.1 -44 0.2 -1.4 0.9 -4.3 1.3 -6.5 2.8 -12.7 6 -28.5 6.5 -32 0.4 -2.2 0.8 -4.7 1.1 -5.5 0.2 -0.8 0.6 -3.3 1 -5.4 0.3 -2.1 0.7 -4.8 1 -6 1.5 -6.8 7.9 -49 14 -92.1 3.1 -22 5.8 -41.1 6 -42.5 0.3 -1.4 1.6 -9.7 3 -18.5 1.4 -8.8 2.8 -17.1 3 -18.5 0.8 -4.5 2.4 -13.4 2.9 -16.4 0.3 -1.6 1 -5.2 1.5 -8 0.6 -2.8 1.2 -6.2 1.5 -7.6 0.6 -3.6 11.5 -57.9 13.6 -68 1 -4.7 2.5 -11.6 3.3 -15.5 0.9 -3.8 2.2 -10.4 3.1 -14.5 0.8 -4.1 1.8 -8.6 2.1 -10 0.3 -1.4 1 -4.5 1.5 -7 0.5 -2.5 1.2 -5.6 1.5 -7 0.3 -1.4 1 -4.5 1.5 -7 0.5 -2.5 1.2 -5.6 1.5 -7 0.7 -3.2 2.8 -12.7 5.4 -25.5 5.4 -26 7.6 -34.3 11.2 -42.2 1 -2.4 1.9 -4.5 1.9 -4.9 0 -2.2 24.7 -38.8 28 -41.4 0.3 -0.3 1.9 -2.3 3.5 -4.5 1.6 -2.2 5.3 -6.6 8.3 -9.8 l5.4 -5.7 -6.9 -7.6 c-3.7 -4.2 -37.9 -42.5 -75.9 -85.2 l-69.1 -77.5 2.6 -3 c24.2 -28.1 47.7 -48.7 74.6 -65.1 12.3 -7.5 13.9 -8.4 30.5 -16.7 15.4 -7.7 17.7 -8.7 32 -14.9 4.1 -1.8 9.8 -4.3 12.7 -5.6 2.8 -1.3 5.4 -2.4 5.7 -2.4 0.4 0 2.5 -0.9 4.9 -2 2.3 -1 6.7 -2.9 9.7 -4 3 -1.2 7.1 -2.8 9 -3.7 5.8 -2.5 6.9 -3 21.5 -8.8 7.7 -3.1 15.4 -6.3 17 -7 1.7 -0.8 5.7 -2.5 9 -3.8 l6 -2.4 -0.3 -9.4 c-0.2 -5.2 -1.3 -19.9 -2.5 -32.6 -1.5 -15.3 -1.9 -23.3 -1.2 -23.3 4 0 15.6 2.7 24.9 5.7 23.3 7.4 50.1 19.8 72.1 33.3 20.5 12.5 17.1 11.6 39.5 11 70.2 -1.8 118.9 0.8 179.9 9.5 156.7 22.5 289 78.9 402.1 171.5 113.5 92.9 198.4 216.1 242.3 351.5 32.2 99.4 47.5 214.9 42.7 322 -5 110 -26.9 212.7 -66.5 311 -61.8 153.6 -156.5 281.5 -284 384 -95.4 76.6 -199.8 131.5 -316.6 166.5 -60.6 18.2 -135.6 32.6 -186.9 36 -15 1 -39.6 3.4 -46.1 4.5 -1.5 0.2 -2.9 0.1 -3.3 -0.2z m-110.1 -1055.1 c14.8 -29.9 43.9 -98.8 60.5 -143.2 6.5 -17.5 14 -40.2 14 -42.4 0 -1.1 -1.8 -0.7 -7.7 2 -13.3 6 -38 18.7 -57.8 29.6 -10.4 5.7 -23.6 12.9 -29.2 15.9 -12 6.3 -10.9 3 -9.3 28.4 3.1 50 11.6 105.4 18.7 121.8 2.1 4.9 2.5 4.5 10.8 -12.1z"/>
  <path d="M816.8 1776.7 c9.9 -10.5 47.5 -32.2 92.1 -53.1 l8.3 -3.9 12.9 0.5 c11.8 0.5 13.3 0.8 16.9 3.2 2.2 1.4 4 3 4 3.4 0 1.1 -15.4 11.3 -25.5 16.9 -26.1 14.5 -61.8 26.6 -97 32.8 -4.9 0.8 -10.1 1.8 -11.5 2.1 l-2.5 0.6 2.3 -2.5z"/>
  <path d="M1052 1667.6 c0 -0.8 0.8 -1.7 1.8 -1.9 0.9 -0.3 -8.6 -0.5 -21.3 -0.5 -12.9 0 -22.1 0.3 -21 0.8 1.9 0.7 1.9 0.8 0.2 1.5 -2.7 1.1 -9 -0.2 -10.5 -2.2 -1.4 -1.9 -1.3 -6.4 0.2 -6.3 0.5 0.1 1.4 -0.8 2 -1.9 1.5 -2.7 65.3 -57.1 67 -57.1 0.7 0 2.9 -1.1 4.9 -2.4 l3.6 -2.5 34.3 2.1 c29.1 1.8 34.6 2.4 36.6 3.9 l2.3 1.7 -5.3 4.6 c-8.8 7.5 -50.7 39.3 -59.3 45 -6.7 4.4 -32.3 16.6 -34.7 16.6 -0.5 0 -0.8 -0.6 -0.8 -1.4z"/>
  <path d="M1180 1542.6 c0 -0.8 0.8 -1.7 1.8 -1.9 0.9 -0.3 -3 -0.5 -8.8 -0.5 -6.4 0 -9.7 0.3 -8.5 0.8 3.9 1.6 -0.9 2.1 -18.7 1.8 l-17.7 -0.3 26.5 -32.9 c14.5 -18.1 27.8 -34.4 29.5 -36.3 l3 -3.5 36.7 0.4 36.7 0.4 8.5 2.8 c4.7 1.5 9.1 2.9 9.9 3.2 2.1 0.7 0.6 2.5 -31.7 39.5 -13.4 15.3 -17.4 19.3 -22.8 22.4 -3.5 2.1 -6.7 4.2 -7 4.7 -0.3 0.4 -8.8 0.8 -19 0.8 -15.3 0 -18.4 -0.2 -18.4 -1.4z"/>
  <path d="M4201 1438.4 c-15.9 -2.1 -39 -7 -58.2 -12.2 l-17.3 -4.7 -0.3 -49.2 -0.2 -49.3 25.4 0 25.4 0 0.7 7.3 c2.4 26.3 12.4 44.7 28.5 52.5 9.8 4.7 17 6.2 30 6.3 39.3 0 56.6 -15.6 81.3 -73.3 3.7 -8.7 6.7 -16.3 6.7 -17 0 -0.7 -45.6 -107.3 -101.4 -236.8 l-101.3 -235.5 -25.2 -0.3 -25.1 -0.2 0 -26.5 0 -26.5 135 0 135 0 0 26.5 0 26.5 -27.5 0 c-15.1 0 -27.5 0.3 -27.5 0.8 0 0.4 26.4 62.2 58.7 137.5 l58.7 136.7 54.4 -135.7 c29.9 -74.7 54.6 -136.6 54.9 -137.5 0.5 -1.7 -1.4 -1.8 -30.1 -1.8 l-30.6 0 0 -26.5 0 -26.5 88 0 88 0 0 26.5 0 26.5 -28.3 0 -28.3 0 -104.3 261.8 c-57.4 143.9 -107.2 267.6 -110.6 274.7 -17 34.8 -38.6 57.6 -64.5 67.8 -9.4 3.7 -20 6.5 -31.5 8.2 -12.6 1.9 -44 1.8 -58.5 -0.1z"/>
  <path d="M1233.7 1416 c-3.8 -1 -7 -2 -7.2 -2.1 -0.1 -0.2 2.2 -4.4 5.2 -9.4 16.8 -27.6 32.7 -53.4 34.2 -55.4 l1.6 -2.1 51.2 0.7 c28.1 0.5 51.5 1.1 51.8 1.5 0.9 0.9 0.2 2.2 -22.1 36.8 l-18.7 29 -24.6 0.1 c-13.5 0.1 -23.8 0.3 -22.8 0.6 0.9 0.2 1.5 0.9 1.2 1.4 -0.4 0.5 -9.8 0.9 -21.8 0.8 -17.3 0 -22.5 -0.4 -28 -1.9z"/>
  <path d="M1377.3 1292.3 c-5.7 -0.2 -10.3 -0.7 -10.3 -1.1 0 -0.4 -4.7 -0.6 -10.5 -0.4 -5.8 0.2 -10.5 0 -10.5 -0.5 0 -0.4 -2.2 -0.7 -4.8 -0.5 -8.9 0.6 -35.6 -1.6 -39.9 -3.3 -3.9 -1.5 -4 -1.8 -3.3 -4.8 0.7 -3 18.3 -46.3 23.2 -56.9 1.9 -4.2 2.5 -4.8 5.2 -4.8 16.2 -0.1 102.7 3.4 104.9 4.2 2.5 1 2.7 1.4 2.1 4.1 -0.3 1.7 -4.9 11.9 -10.1 22.6 -5.2 10.8 -11.9 24.7 -14.9 30.9 l-5.5 11.2 -7.7 -0.2 c-4.2 -0.1 -12.3 -0.4 -17.9 -0.5z m-8.5 -4 c-1 -0.2 -2.6 -0.2 -3.5 0 -1 0.3 -0.2 0.5 1.7 0.5 1.9 0 2.7 -0.2 1.8 -0.5z m-21 -1 c-1 -0.2 -2.6 -0.2 -3.5 0 -1 0.3 -0.2 0.5 1.7 0.5 1.9 0 2.7 -0.2 1.8 -0.5z"/>
  <path d="M2970 1251.5 c-54.7 -7.5 -92.3 -36.4 -108.9 -83.9 -11.9 -33.9 -12.6 -85 -1.5 -118.2 17.1 -51.2 61.4 -83.5 132.4 -96.3 27.4 -5 35.1 -5.4 100.8 -5.8 l62.2 -0.4 0 -15.2 c0 -18.2 -1.4 -36.3 -3.6 -47 -10.3 -51.1 -43.7 -74.7 -105.6 -74.8 -37.5 0 -61.2 7.6 -78.8 25.1 -11.8 11.7 -20.7 27.7 -26.3 47 l-2.5 8.5 -25.6 0.3 -25.6 0.2 0.2 -50.7 0.3 -50.8 13 -4.3 c37.3 -12.4 83.2 -21.2 126.8 -24.3 22.6 -1.5 82.5 -0.7 100.7 1.5 62.6 7.4 105.1 24.1 134.5 52.7 12.8 12.5 20.9 23.7 29.1 40.4 9.9 20.2 15.6 42 18.4 70.4 0.6 6.4 1 57.4 1 135.7 l0 125.4 33.5 0 33.5 0 0 26.5 0 26.5 -111.5 0 -111.5 0 0 -28.6 0 -28.5 -12.2 12.4 c-32.9 33.1 -66.9 50.3 -111.6 56.2 -13.9 1.8 -47.7 1.8 -61.2 0z m124 -74 c9.1 -1.8 16.8 -4.9 24 -9.6 21 -13.5 33.1 -34.7 36 -63 0.5 -5.6 1 -31.7 1 -58 l0 -47.9 -27.2 0 c-44.8 0.1 -60.4 2 -76.3 9.4 -22.7 10.6 -37.4 31.1 -42.6 59.6 -2.2 11.7 -1.7 42 0.9 54.5 6.1 30.1 19.8 47.4 42.7 54.1 10.9 3.1 28.6 3.5 41.5 0.9z"/>
  <path d="M2088 1213.5 l0 -26.5 42 0 42 0 0 -275 0 -275 -42 0 -42 0 0 -26.5 0 -26.5 200.3 0 c130 0 205 0.4 213.8 1 91.9 7.2 157.2 43.1 184.4 101.4 20.2 43.2 20.1 104.6 -0.1 144.8 -6.3 12.5 -13.3 21.9 -24.8 33.4 -13 12.9 -25.4 21.5 -43.6 30.3 -20.6 9.9 -48.3 18.3 -74.5 22.6 -15.9 2.6 -15.9 2.6 -8 4.2 33.3 6.8 61.6 24.8 82.2 52.1 9.5 12.7 15.7 23.8 66.3 120.5 l48.5 92.7 33.8 0 33.7 0 0 26.5 0 26.5 -108.7 -0.2 -108.8 -0.3 -54.6 -103.5 c-30.1 -56.9 -57.7 -109.3 -61.5 -116.4 -12.8 -24.1 -28.2 -45.6 -39.3 -54.8 -6.3 -5.3 -18.9 -11.4 -28.6 -13.8 -8.7 -2.2 -28.9 -4 -45.7 -4 l-10.8 0 0 120 0 120 42 0 42 0 0 26.5 0 26.5 -169 0 -169 0 0 -26.5z m338.8 -322 c47.6 -7.4 79.8 -34.1 92.6 -76.8 5.2 -17 6.1 -24.5 6.1 -49.7 0 -18.5 -0.4 -25.4 -1.8 -32.5 -7.7 -38.6 -26.1 -65 -56.3 -80.5 -22.7 -11.6 -44.4 -14.9 -99.6 -15 l-25.8 0 0 128.6 0 128.7 37.3 -0.6 c26.7 -0.4 40.1 -1 47.5 -2.2z"/>
  <path d="M3428 1213.5 l0 -26.5 33.5 0 33.5 0 0 -289 0 -289 -33.5 0 -33.5 0 0 -26.5 0 -26.5 111.5 0 111.5 0 0 315.5 0 315.5 33.5 0 33.5 0 0 26.5 0 26.5 -145 0 -145 0 0 -26.5z"/>
  <path d="M3770 1213.5 l0 -26.5 33.5 0 33.5 0 0 -289 0 -289 -33.5 0 -33.5 0 0 -26.5 0 -26.5 111.5 0 111.5 0 0 315.5 0 315.5 33.5 0 33.5 0 0 26.5 0 26.5 -145 0 -145 0 0 -26.5z"/>
  <path d="M1434 1165.4 c-7.4 -0.7 -17.7 -1.3 -22.7 -1.3 -7.4 -0.1 -9.3 -0.4 -9.3 -1.5 0 -0.8 0.8 -1.7 1.8 -1.9 0.9 -0.3 -1 -0.5 -4.3 -0.5 -3.3 0 -5.2 0.2 -4.2 0.5 0.9 0.2 1.5 0.9 1.2 1.4 -0.4 0.5 -12 0.9 -27.2 0.9 -21.1 0 -26.3 -0.3 -25.5 -1.2 0.9 -1.1 7.9 -29.8 13.9 -56.5 l1.7 -7.3 58.8 0 c56.8 0 58.9 0.1 58.4 1.8 -0.4 1 -4.6 15.6 -9.5 32.4 -4.9 16.7 -9.5 31.4 -10.2 32.6 -1.6 2.6 -2.6 2.6 -22.9 0.6z"/>
  <path d="M1373.5 1035.5 c-2.9 -2.8 -3.1 -4.2 -1.1 -6.4 0.9 -1.1 2.4 -11 4.6 -30.1 3.7 -33.2 3.9 -35.1 3.9 -36.7 0.1 -2.2 3.1 -1.4 3.1 0.7 0 1.9 0.7 2 9 2 7.1 0 9 0.3 9 1.4 0 0.8 -0.8 1.7 -1.7 1.9 -1 0.3 1.8 0.5 6.2 0.5 4.4 0 7.2 -0.2 6.2 -0.5 -0.9 -0.2 -1.5 -0.9 -1.2 -1.4 0.4 -0.5 5.8 -0.9 12.1 -0.9 9.2 0 11.4 0.3 11.4 1.4 0 0.8 -0.8 1.7 -1.7 1.9 -1 0.3 1.8 0.5 6.2 0.5 4.4 0 7.2 -0.2 6.2 -0.5 -0.9 -0.2 -1.5 -0.9 -1.2 -1.4 0.4 -0.5 5.8 -0.9 12.1 -0.9 9.2 0 11.4 0.3 11.4 1.4 0 0.8 -0.8 1.7 -1.7 1.9 -1 0.3 1.8 0.5 6.2 0.5 4.4 0 7.2 -0.2 6.2 -0.5 -4.3 -1.1 0.2 -2.3 8.9 -2.3 8.7 0 9.4 -0.1 9.4 -2 0 -1.3 0.7 -2 2 -2 1.7 0 1.9 0.5 1.5 3.2 -0.4 1.8 -1.1 3.5 -1.7 3.9 -0.7 0.4 -0.7 0.8 0 1 0.9 0.4 -6.7 58.9 -8.4 64.1 -0.5 1.7 -3.1 1.8 -57.5 1.8 l-57 0 -2.4 -2.5z"/>
  <path d="M1498 951.5 c0 -2.8 0.4 -3.5 2 -3.5 2.1 0 2.4 1 1.4 4.8 -1 3.6 -3.4 2.7 -3.4 -1.3z"/>
  <path d="M1499 936 c0 -3.3 0.3 -4 2 -4 2.1 0 2.5 1.6 1.4 5.8 -1.1 3.9 -3.4 2.7 -3.4 -1.8z"/>
  <path d="M1500 920.5 c0 -2.8 0.4 -3.5 2 -3.5 2.1 0 2.4 1 1.4 4.8 -1 3.6 -3.4 2.7 -3.4 -1.3z"/>
  <path d="M1381.8 910.3 c-0.6 -2.8 0.2 -5.3 1.8 -5.3 1.2 0 1.4 -4.2 1.4 -26.5 0 -14.7 -0.4 -26.5 -0.9 -26.5 -1.2 0 -2 -3.6 -1.4 -6 0.4 -1.5 1.4 -2 3.9 -2 3.6 0 5.5 1.6 2.7 2.3 -1 0.3 24.2 0.5 56 0.6 l57.7 0.1 0 9.3 c0 5 0.3 19 0.7 31 l0.6 21.7 -9.9 0.1 c-5.4 0.1 -9.1 0.3 -8.1 0.6 0.9 0.2 1.5 0.9 1.2 1.4 -0.4 0.5 -16.6 0.9 -39.1 0.9 -32.6 0 -38.4 -0.2 -38.4 -1.4 0 -0.8 0.8 -1.7 1.8 -1.9 0.9 -0.3 -1.4 -0.5 -5.3 -0.5 -3.8 0 -6.2 0.2 -5.2 0.5 3.2 0.8 0.6 2.3 -4.1 2.3 -2.9 0 -5.9 -0.8 -8 -2 -4.1 -2.5 -4.2 -2.5 -4.2 0.5 0 2.9 -2.5 3.5 -3.2 0.8z"/>
  <path d="M1500 843 c0 -2 0.5 -3 1.5 -3 0.8 0 1.5 0.3 1.5 0.8 0 0.4 0.3 1.7 0.6 3 0.5 1.8 0.2 2.2 -1.5 2.2 -1.7 0 -2.1 -0.6 -2.1 -3z"/>
  <path d="M1383 787.5 c0 -0.9 -0.4 -1.4 -0.9 -1.1 -0.5 0.4 -0.4 -1 0.1 -2.9 0.6 -1.9 1.8 -3.6 2.7 -3.9 0.9 -0.3 0.1 -0.4 -1.6 -0.2 -2.5 0.2 -3.3 -0.2 -3.3 -1.3 0 -0.9 -1.1 -12.8 -2.4 -26.6 -1.4 -13.7 -2.7 -27.8 -3 -31.2 l-0.5 -6.3 46.9 0 c40 0 47 0.2 47 1.4 0 0.8 -0.8 1.7 -1.7 1.9 -1 0.3 2.9 0.5 8.7 0.5 5.8 0 9.7 -0.2 8.7 -0.5 -3.4 -0.9 -0.5 -2.3 4.8 -2.3 5 0 5.4 0.2 5.9 2.8 0.8 3.7 8.6 61.3 8.6 63.5 0 1.6 -3.5 1.7 -59 1.7 l-59 0 0 2.4 c0 1.4 -0.4 2.8 -1 3.1 -0.5 0.3 -1 -0.1 -1 -1z"/>
  <path d="M1476 656.6 c0 -0.8 0.8 -1.7 1.8 -1.9 0.9 -0.3 -0.5 -0.5 -3.3 -0.5 -2.7 0 -4.2 0.2 -3.2 0.5 0.9 0.2 1.5 0.9 1.2 1.4 -0.4 0.5 -6.9 0.9 -14.6 0.9 -11.4 0 -13.9 -0.3 -13.9 -1.4 0 -0.8 0.8 -1.7 1.8 -1.9 0.9 -0.3 -0.8 -0.5 -3.8 -0.5 -3 0 -4.7 0.2 -3.7 0.5 0.9 0.2 1.5 0.9 1.2 1.4 -0.4 0.5 -7.1 0.9 -15.1 0.9 -11.8 0 -14.4 -0.3 -14.4 -1.4 0 -0.8 0.8 -1.7 1.8 -1.9 0.9 -0.3 -0.5 -0.5 -3.3 -0.5 -2.7 0 -4.2 0.2 -3.2 0.5 0.9 0.2 1.5 0.9 1.2 1.4 -0.4 0.5 -7.1 0.9 -15.1 0.9 -11.8 0 -14.4 -0.3 -14.4 -1.4 0 -0.8 0.8 -1.7 1.8 -1.9 0.9 -0.3 -0.8 -0.5 -3.8 -0.5 -3 0 -4.7 0.2 -3.7 0.5 3.1 0.8 0.7 2.3 -3.6 2.3 -3.7 0 -4.4 -0.3 -5.6 -3.1 -1 -2.3 -12.5 -45.4 -15.8 -59.4 -0.3 -1.3 0.4 -2.8 1.7 -4 2 -1.8 3.9 -2 18.1 -2.3 13.6 -0.3 15.9 -0.1 15.9 1.2 0 0.8 -0.8 1.7 -1.7 1.9 -1 0.3 0 0.5 2.2 0.5 2.2 0 3.2 -0.2 2.2 -0.5 -0.9 -0.2 -1.5 -0.9 -1.2 -1.4 0.7 -1.1 22.5 -1.2 22.5 -0.1 0 0.4 5.2 0.6 11.5 0.4 6.3 -0.2 11.5 0 11.5 0.5 0 0.4 5.2 0.7 11.5 0.5 9.7 -0.3 11.5 -0.1 11.5 1.2 0 0.8 -0.8 1.7 -1.7 1.9 -1 0.3 0 0.5 2.2 0.5 2.2 0 3.2 -0.2 2.2 -0.5 -3.3 -0.9 -0.6 -2.3 4.3 -2.3 4.8 0 4.9 0 6.4 4.3 1.4 3.8 14.4 53.5 16.1 61.5 0.6 3.1 0.5 3.2 -2.4 3.2 -2 0 -3.1 -0.5 -3.1 -1.4z m-45.2 -66.3 c-1 -0.2 -2.6 -0.2 -3.5 0 -1 0.3 -0.2 0.5 1.7 0.5 1.9 0 2.7 -0.2 1.8 -0.5z m-23 -1 c-1 -0.2 -2.6 -0.2 -3.5 0 -1 0.3 -0.2 0.5 1.7 0.5 1.9 0 2.7 -0.2 1.8 -0.5z"/>
  <path d="M1342 528.5 c-0.8 -0.2 -5.4 -0.9 -10.3 -1.5 l-8.7 -1.2 -2.5 -5.2 c-1.3 -2.8 -7.8 -16.9 -14.3 -31.3 -9.8 -21.5 -11.7 -26.3 -10.3 -26.6 1.4 -0.4 1.4 -0.5 -0.1 -0.6 -1 0 -1.8 -0.7 -1.8 -1.5 0 -1.6 9.9 -4.6 15.3 -4.6 3.8 0 5.9 1.6 3 2.3 -1 0.3 0.2 0.5 2.7 0.5 2.5 0 3.7 -0.2 2.7 -0.5 -0.9 -0.2 -1.5 -0.9 -1.2 -1.4 0.4 -0.5 7.6 -0.9 16.1 -0.9 12.7 0 15.4 0.3 15.4 1.4 0 0.8 -0.8 1.7 -1.7 1.9 -1 0.3 0 0.5 2.2 0.5 2.2 0 3.2 -0.2 2.2 -0.5 -0.9 -0.2 -1.5 -0.9 -1.2 -1.4 0.7 -1.1 28.5 -1.2 28.5 -0.1 0 0.4 5.8 0.6 13 0.4 11 -0.3 13 -0.1 13 1.2 0 0.8 -0.8 1.7 -1.7 1.9 -1 0.3 0.1 0.5 2.5 0.6 l4.2 0.1 16 32.1 c8.8 17.6 16 32.7 16 33.5 0 1.2 -6.8 1.4 -48.7 1.3 -26.9 -0.1 -49.5 -0.3 -50.3 -0.4z m37.8 -68.2 c-1 -0.2 -2.6 -0.2 -3.5 0 -1 0.3 -0.2 0.5 1.7 0.5 1.9 0 2.7 -0.2 1.8 -0.5z"/>
  <path d="M1257.9 396.3 c-2.3 -2.5 -43.6 -62.7 -46.7 -68.1 l-1.2 -2.2 53.4 0 53.4 0 3.3 3.8 c5.3 5.8 46 59.6 46 60.7 0 0.6 0.7 1.7 1.5 2.6 1.3 1.4 0.8 1.8 -4.8 3.5 -5.8 1.7 -10.3 1.9 -54.3 2.1 l-48 0.3 -2.6 -2.7z"/>
  <path d="M1221 272.9 c-12.4 -0.3 -30.9 -0.7 -41.2 -0.8 -17.2 -0.1 -18.8 -0.3 -18.8 -1.8 0 -1.1 -2.8 -3.6 -6.8 -6.3 -6.8 -4.6 -46.8 -43.2 -53.2 -51.4 -1.9 -2.5 -4.1 -4.5 -4.8 -4.6 -2.7 0 -0.7 -4.5 2.7 -6.2 2.9 -1.4 7.6 -1.7 37.1 -1.7 20.2 -0.1 34.1 0.2 34.4 0.8 0.4 0.5 -0.2 1.2 -1.1 1.4 -1 0.3 1 0.5 4.3 0.4 3.4 -0.1 6.8 0.3 7.5 0.9 44.7 35 74.1 58.3 76.7 60.7 3.7 3.6 3.9 5 1.2 7.7 -1.7 1.7 -3.2 2 -8.7 1.8 -3.8 -0.1 -16.9 -0.5 -29.3 -0.9z"/>
  <path d="M1001.9 139.5 c-0.9 -0.9 -3.8 -2.2 -6.6 -2.9 -2.7 -0.7 -9.3 -3.9 -14.7 -7.1 -38.4 -22.6 -95.1 -41.8 -187.2 -63.5 -14.2 -3.3 -26 -6.3 -26.3 -6.7 -1.1 -1.1 45.3 0.6 58.8 2.2 58.2 6.7 117.2 21.1 170.1 41.5 42.5 16.3 71.6 28.5 74 31 l2.5 2.5 -16 0.5 c-8.8 0.3 -15.2 0.7 -14.2 0.8 0.9 0.1 1.7 0.9 1.7 1.7 0 2.3 -39.8 2.2 -42.1 0z"/>
 </g>
 <g fill="#a37b34">
  <path d="M944.3 1726.4 c-3 -2.5 -4.1 -2.6 -17.9 -3.2 -13.6 -0.5 -14.5 -0.6 -12.7 -2.1 1.1 -0.9 6.2 -5 11.4 -9.2 9.9 -8 27 -20.1 58.2 -41.2 18.1 -12.3 18.8 -12.6 19.6 -10.4 1.9 5.1 2.6 5.2 30.5 5.5 l26 0.3 -6.9 4.1 c-21.3 12.3 -104.2 58.9 -104.8 58.8 -0.1 -0.1 -1.6 -1.2 -3.4 -2.6z"/>
  <path d="M1146.5 1603.6 c-1.4 -1 -11 -1.9 -31.5 -3.1 -16.2 -0.9 -31.7 -2 -34.4 -2.4 l-4.9 -0.6 27.4 -28.8 27.4 -28.7 44 0.6 c24.2 0.4 44.1 0.8 44.3 0.9 0.2 0.2 -69.6 63.5 -70 63.4 -0.2 0 -1.2 -0.6 -2.3 -1.3z"/>
  <path d="M1268 1476.7 l-9.5 -3.1 -36.7 -0.6 -36.8 -0.5 21.6 -30.8 c16.8 -23.9 22 -30.7 23.3 -30.2 7.3 2.9 13.8 3.3 54.5 4 23.5 0.4 42.5 1.1 42.4 1.6 -0.3 0.8 -49 63 -49.2 62.8 -0.1 0 -4.4 -1.5 -9.6 -3.2z"/>
  <path d="M1315.6 1350.9 c-26.9 -0.5 -49.1 -1 -49.3 -1.2 -0.2 -0.3 6.3 -14.2 29.6 -62.8 l2.8 -5.7 4.4 2.1 c5.1 2.4 10 2.8 61.4 5.2 19.3 0.8 36 1.7 37.2 1.8 2.1 0.2 0.8 2.9 -14.6 30.7 -15.9 28.9 -16.9 30.5 -19.7 30.6 -1.6 0.1 -24.9 -0.3 -51.8 -0.7z"/>
  <path d="M1429.5 1227.9 c-3.1 -1.7 -9 -2.1 -86.6 -4.5 l-20.6 -0.7 4.4 -15.1 c8.8 -30.1 12.1 -39.5 15.4 -43.6 l3.2 -4 20.1 0 c23.9 0 61.1 1.6 78.8 3.3 l12.6 1.2 -11.4 31.3 c-6.2 17.2 -11.7 31.8 -12.1 32.6 -0.6 1 -1.4 0.9 -3.8 -0.5z"/>
  <path d="M1360.4 1095.3 c0.2 -1 2.8 -16 5.6 -33.3 3.1 -18.6 5.8 -32.1 6.6 -33 1.2 -1.2 1.4 -1.2 1.4 0.2 0 0.9 1.2 2.6 2.6 3.7 2.6 2.1 3.5 2.1 58.4 2.1 l55.7 0 -0.3 2.3 c-0.2 1.2 -1.1 7.6 -2 14.2 -1.8 13 -5.9 30.6 -9.4 39.8 l-2.1 5.7 -58.5 0 c-55.3 0 -58.5 -0.1 -58 -1.7z"/>
  <path d="M1430.7 969.2 l-49.8 -1.5 0.6 -15.6 c1.5 -42.5 2.6 -155.9 1.6 -162.1 -0.6 -3.6 -1.1 -7.3 -1.1 -8.2 0 -1.7 3.5 -1.8 60.5 -1.8 l60.5 0 0 33 0 33 -57.5 0 -57.5 0 0 28.8 0 28.8 4.3 2.5 4.2 2.4 53.3 0.6 c29.2 0.3 53.5 0.8 53.8 1.1 0.5 0.6 -2 44.5 -3.2 55.6 l-0.5 5.2 -9.7 -0.2 c-5.3 0 -32.1 -0.8 -59.5 -1.6z"/>
  <path d="M1430.1 717 l-55.5 -0.5 -4.2 -19.5 c-4.1 -18.9 -7.4 -38.1 -7.4 -43.5 l0 -2.5 9.3 0.5 c5 0.3 26.3 1 47.2 1.5 20.9 0.5 43.5 1.3 50.1 1.6 l12.1 0.6 6.2 30.6 c3.3 16.9 6.1 31 6.1 31.5 0 0.4 -1.9 0.6 -4.2 0.5 -2.4 -0.2 -29.2 -0.5 -59.7 -0.8z"/>
  <path d="M1343.2 586.3 c-4 -8.8 -21.8 -63 -20.9 -63.9 0.3 -0.3 4.2 0.3 8.8 1.2 7.2 1.5 15.6 1.8 59 2.2 l50.5 0.3 12.1 32.7 c6.6 18 12 32.8 11.9 32.9 -0.1 0.1 -20 -0.6 -44.1 -1.7 -70.2 -3.1 -68.2 -3.1 -71.4 2.1 l-1.8 2.9 -4.1 -8.7z"/>
  <path d="M1291.9 457.2 c-1.4 -2.6 -9.1 -16.6 -17.1 -31.2 -8.1 -14.6 -15 -27.3 -15.3 -28.2 -0.7 -1.7 1.9 -1.8 46.1 -1.8 43.9 0 47.4 -0.1 53.9 -2 5.5 -1.6 7.2 -1.7 8.1 -0.7 0.6 0.6 8 12.9 16.4 27.1 8.4 14.3 17.3 29.3 19.7 33.4 l4.4 7.5 -23.8 -0.7 c-13.1 -0.4 -34.8 -1.1 -48.3 -1.6 -22.4 -0.7 -25.1 -0.6 -31.9 1.1 -4.1 1 -7.9 1.9 -8.5 1.9 -0.6 0 -2.2 -2.2 -3.7 -4.8z"/>
  <path d="M1194.9 310.3 c-9.6 -10.3 -20.7 -22.3 -24.7 -26.6 -6.8 -7.3 -9.2 -11 -9.2 -14 0 -0.9 10.7 -0.9 46.2 -0.1 25.5 0.6 46.9 0.9 47.6 0.6 0.7 -0.2 1.8 -1.5 2.5 -2.7 1.2 -2.2 1.7 -1.7 13.6 10.9 6.9 7.2 20.5 21.5 30.4 31.9 l17.9 18.7 -53.5 0 -53.5 0 -17.3 -18.7z"/>
  <path d="M1077.5 194.8 c-9.9 -7.2 -31.3 -22.8 -47.5 -34.7 l-29.5 -21.6 35.8 -0.3 35.8 -0.2 23.7 12.4 c35.3 18.4 43 23.1 67.5 41 l13.7 10.1 -6.2 0.7 c-3.5 0.4 -20.3 0.8 -37.5 1 -30.7 0.3 -31.2 0.3 -33.5 2.6 -1.4 1.2 -2.8 2.2 -3.4 2.2 -0.5 -0.1 -9 -6 -18.9 -13.2z"/>
 </g>
</svg>